<svg width="58" height="41" viewBox="0 0 58 41" fill="none" xmlns="http://www.w3.org/2000/svg">
<g clip-path="url(#clip0_930_14)">
<path d="M47.1104 3.2998H10.3869C6.03035 3.2998 2.49866 6.83097 2.49866 11.1869V30.9377C2.49866 35.2936 6.03035 38.8248 10.3869 38.8248H47.1104C51.467 38.8248 54.9987 35.2936 54.9987 30.9377V11.1869C54.9987 6.83097 51.467 3.2998 47.1104 3.2998Z" fill="white" stroke="#D9D9D9"/>
<path fill-rule="evenodd" clip-rule="evenodd" d="M13.4041 15.7998L8.74866 26.0991H14.3218L15.0127 24.457H16.592L17.2829 26.0991H23.4174V24.8458L23.964 26.0991H27.1372L27.6839 24.8193V26.0991H40.442L41.9933 24.4996L43.4459 26.0991L49.9987 26.1123L45.3286 20.9782L49.9987 15.7998H43.5475L42.0374 17.3698L40.6305 15.7998H26.7514L25.5596 18.4582L24.3398 15.7998H18.7783V17.0105L18.1596 15.7998H13.4041ZM32.4556 17.2624H39.7819L42.0227 19.6821L44.3356 17.2624H46.5764L43.1718 20.9768L46.5764 24.6484H44.234L41.9933 22.2005L39.6684 24.6484H32.4556V17.2624ZM34.2648 20.1416V18.7925V18.7912H38.8362L40.8308 20.9488L38.7478 23.1182H34.2648V21.6454H38.2616V20.1416H34.2648ZM14.4824 17.2624H17.199L20.2869 24.2463V17.2624H23.2629L25.648 22.2698L27.8461 17.2624H30.8072V24.6527H29.0054L28.9907 18.8616L26.3639 24.6527H24.7521L22.1107 18.8616V24.6527H18.4041L17.7014 22.9959H13.9049L13.2037 24.6513H11.2177L14.4824 17.2624ZM14.5532 21.4643L15.804 18.5128L17.0533 21.4643H14.5532Z" fill="#434343"/>
<rect y="0.799805" width="57.5" height="40" fill="white" style="mix-blend-mode:saturation"/>
</g>
<defs>
<clipPath id="clip0_930_14">
<rect width="57.5" height="40" fill="white" transform="translate(0 0.799805)"/>
</clipPath>
</defs>
</svg>
