<svg width="58" height="41" viewBox="0 0 58 41" fill="none" xmlns="http://www.w3.org/2000/svg">
<path d="M47.6127 3.2998H10.8892C6.53267 3.2998 3.00098 6.83097 3.00098 11.1869V30.9377C3.00098 35.2936 6.53267 38.8248 10.8892 38.8248H47.6127C51.9693 38.8248 55.501 35.2936 55.501 30.9377V11.1869C55.501 6.83097 51.9693 3.2998 47.6127 3.2998Z" fill="white" stroke="#D9D9D9" stroke-miterlimit="16"/>
<path fill-rule="evenodd" clip-rule="evenodd" d="M14.7484 15.2716C15.5206 15.3377 16.2928 14.8751 16.7754 14.2886C17.25 13.6856 17.5637 12.8761 17.4833 12.05C16.7995 12.0831 15.9549 12.5126 15.4723 13.1156C15.0299 13.636 14.6518 14.4786 14.7484 15.2716ZM23.9344 25.9111V13.033H28.64C31.0693 13.033 32.7665 14.7512 32.7665 17.2624C32.7665 19.7736 31.0371 21.5083 28.5757 21.5083H25.881V25.9111H23.9344ZM17.4751 15.4287C16.7948 15.3884 16.1741 15.6387 15.6727 15.8409C15.35 15.971 15.0768 16.0812 14.8689 16.0812C14.6356 16.0812 14.3512 15.9651 14.0317 15.8348C13.6131 15.6641 13.1345 15.4688 12.6327 15.4782C11.4825 15.4947 10.4126 16.1638 9.82539 17.2294C8.61886 19.3607 9.5117 22.5161 10.678 24.2509C11.2492 25.1099 11.9329 26.0516 12.8338 26.0186C13.2302 26.0033 13.5153 25.879 13.8103 25.7504C14.15 25.6024 14.5029 25.4486 15.0539 25.4486C15.5858 25.4486 15.9233 25.5984 16.2472 25.7422C16.5552 25.8789 16.851 26.0101 17.2901 26.002C18.2232 25.9855 18.8104 25.143 19.3815 24.2839C19.9978 23.3619 20.2687 22.462 20.3098 22.3254L20.3146 22.3096C20.3136 22.3086 20.306 22.3051 20.2926 22.2987C20.0865 22.2019 18.5118 21.4615 18.4967 19.4763C18.4815 17.8099 19.7457 16.9657 19.9448 16.8328C19.9568 16.8247 19.965 16.8193 19.9687 16.8164C19.1644 15.5939 17.9095 15.4617 17.4751 15.4287ZM36.3221 26.0104C37.5447 26.0104 38.6789 25.3743 39.1937 24.3666H39.234V25.9113H41.0358V19.5011C41.0358 17.6425 39.5878 16.4448 37.3597 16.4448C35.2924 16.4448 33.7641 17.659 33.7078 19.3277H35.4614C35.6062 18.5347 36.3221 18.0143 37.3034 18.0143C38.4939 18.0143 39.1616 18.5843 39.1616 19.6333V20.3437L36.7323 20.4924C34.472 20.6328 33.2493 21.5828 33.2493 23.2349C33.2493 24.9035 34.5122 26.0104 36.3221 26.0104ZM36.8448 24.482C35.8071 24.482 35.1475 23.9698 35.1475 23.1851C35.1475 22.3756 35.783 21.9047 36.9976 21.8303L39.1614 21.6899V22.4168C39.1614 23.6229 38.164 24.482 36.8448 24.482ZM47.0122 26.4149C46.232 28.67 45.3392 29.4134 43.4408 29.4134C43.296 29.4134 42.8134 29.3969 42.7008 29.3638V27.8191C42.8214 27.8357 43.119 27.8522 43.2719 27.8522C44.1326 27.8522 44.6152 27.4804 44.9128 26.514L45.0898 25.944L41.7918 16.5684H43.8269L46.1194 24.1763H46.1596L48.4521 16.5684H50.4309L47.0122 26.4149ZM25.8809 14.7181H28.1251C29.8143 14.7181 30.7796 15.6433 30.7796 17.2706C30.7796 18.8979 29.8143 19.8313 28.1171 19.8313H25.8809V14.7181Z" fill="#434343"/>
</svg>
