<svg width="18" height="18" viewBox="0 0 18 18" fill="none" xmlns="http://www.w3.org/2000/svg">
<path d="M6.71304 5.90468V4.96656C6.71304 4.22013 6.99648 3.50429 7.50099 2.97649C8.0055 2.44869 8.68977 2.15217 9.40326 2.15217C10.1168 2.15217 10.801 2.44869 11.3055 2.97649C11.81 3.50429 12.0935 4.22013 12.0935 4.96656V5.90468M4.4712 5.90468C4.35228 5.90468 4.23824 5.9541 4.15415 6.04207C4.07007 6.13003 4.02283 6.24934 4.02283 6.37375V12.7061C4.02283 13.5926 4.7447 14.3478 5.59212 14.3478H13.2144C14.0618 14.3478 14.7837 13.6293 14.7837 12.7427V6.37375C14.7837 6.24934 14.7365 6.13003 14.6524 6.04207C14.5683 5.9541 14.4542 5.90468 14.3353 5.90468H4.4712Z" stroke="#15274B" stroke-width="1.07609" stroke-linecap="round" stroke-linejoin="round"/>
</svg>
