<svg width="50" height="50" viewBox="0 0 50 50" fill="none" xmlns="http://www.w3.org/2000/svg">
<rect x="0.5" y="0.5" width="49" height="49" rx="24.5" stroke="#7A7A7A"/>
<g clip-path="url(#clip0_2_1376)">
<path fill-rule="evenodd" clip-rule="evenodd" d="M25.0962 21.2812C25.0962 21.1569 25.0469 21.0377 24.959 20.9498C24.871 20.8619 24.7518 20.8125 24.6275 20.8125H18.4062C18.0333 20.8125 17.6756 20.9607 17.4119 21.2244C17.1482 21.4881 17 21.8458 17 22.2188V31.5938C17 31.9667 17.1482 32.3244 17.4119 32.5881C17.6756 32.8518 18.0333 33 18.4062 33H27.7812C28.1542 33 28.5119 32.8518 28.7756 32.5881C29.0393 32.3244 29.1875 31.9667 29.1875 31.5938V25.3725C29.1875 25.2482 29.1381 25.129 29.0502 25.041C28.9623 24.9531 28.8431 24.9037 28.7188 24.9037C28.5944 24.9037 28.4752 24.9531 28.3873 25.041C28.2994 25.129 28.25 25.2482 28.25 25.3725V31.5938C28.25 31.7181 28.2006 31.8373 28.1127 31.9252C28.0248 32.0131 27.9056 32.0625 27.7812 32.0625H18.4062C18.2819 32.0625 18.1627 32.0131 18.0748 31.9252C17.9869 31.8373 17.9375 31.7181 17.9375 31.5938V22.2188C17.9375 22.0944 17.9869 21.9752 18.0748 21.8873C18.1627 21.7994 18.2819 21.75 18.4062 21.75H24.6275C24.7518 21.75 24.871 21.7006 24.959 21.6127C25.0469 21.5248 25.0962 21.4056 25.0962 21.2812Z" fill="#434343"/>
<path fill-rule="evenodd" clip-rule="evenodd" d="M32 18.4688C32 18.3444 31.9506 18.2252 31.8627 18.1373C31.7748 18.0494 31.6556 18 31.5313 18H26.8438C26.7194 18 26.6002 18.0494 26.5123 18.1373C26.4244 18.2252 26.375 18.3444 26.375 18.4688C26.375 18.5931 26.4244 18.7123 26.5123 18.8002C26.6002 18.8881 26.7194 18.9375 26.8438 18.9375H30.3997L22.7619 26.5744C22.7183 26.618 22.6837 26.6697 22.6601 26.7266C22.6366 26.7836 22.6244 26.8446 22.6244 26.9063C22.6244 26.9679 22.6366 27.0289 22.6601 27.0859C22.6837 27.1428 22.7183 27.1945 22.7619 27.2381C22.8055 27.2817 22.8572 27.3163 22.9142 27.3399C22.9711 27.3635 23.0321 27.3756 23.0938 27.3756C23.1554 27.3756 23.2164 27.3635 23.2734 27.3399C23.3303 27.3163 23.3821 27.2817 23.4256 27.2381L31.0625 19.6003V23.1563C31.0625 23.2806 31.1119 23.3998 31.1998 23.4877C31.2877 23.5756 31.4069 23.625 31.5313 23.625C31.6556 23.625 31.7748 23.5756 31.8627 23.4877C31.9506 23.3998 32 23.2806 32 23.1563V18.4688Z" fill="#434343"/>
</g>
<defs>
<clipPath id="clip0_2_1376">
<rect width="15" height="15" fill="white" transform="translate(17 18)"/>
</clipPath>
</defs>
</svg>
