<svg width="42" height="43" viewBox="0 0 42 43" fill="none" xmlns="http://www.w3.org/2000/svg">
<path d="M5.40767 0.78527C3.61505 0.777975 1.88879 1.12189 0.329346 1.88109C9.57562 4.54084 17.2392 9.35346 23.9166 15.507C23.0397 11.487 20.3646 7.82267 16.9403 5.15519C15.961 5.88908 14.5036 5.9027 13.3231 5.22111C12.1452 4.54084 11.4308 3.27495 11.5735 2.0625C9.53536 1.25065 7.42994 0.793532 5.40749 0.78527H5.40767ZM14.3396 1.36755C13.8812 1.38214 13.5032 1.58507 13.326 1.89208C13.0235 2.41608 13.2777 3.29613 14.1472 3.79825C15.0167 4.30037 15.9047 4.08055 16.2073 3.55655C16.5097 3.03255 16.2583 2.14977 15.3887 1.64756C15.0626 1.45948 14.7326 1.3744 14.4329 1.36755C14.4018 1.36667 14.3701 1.36649 14.3397 1.36755H14.3396ZM10.5383 7.86319L1.29052 23.8895C1.8154 24.6325 2.44127 25.1455 3.49877 25.2133L12.7686 9.14868C12.0628 8.68198 11.3184 8.25413 10.5383 7.86319ZM27.6576 8.41251L26.1278 9.35997L25.2296 15.2185L28.5969 10.022L27.6576 8.41251ZM15.3227 13.8371L13.4028 15.0207L14.6662 16.5425L22.2386 16.125L15.3227 13.8372V13.8371ZM33.7578 13.8974L33.4255 13.999L17.509 18.9126L17.1794 19.017L17.0203 19.3247L13.3013 26.6086L12.9827 27.2348L13.5513 27.6468L32.5823 41.4676L33.4723 42.113L33.8376 41.075L41.6214 18.9758L41.8549 18.3166L41.2396 17.9818L34.0629 14.065L33.7579 13.8975L33.7578 13.8974ZM33.5793 15.6717L39.1411 18.7094L33.3429 20.4975L30.4207 16.6467L33.5793 15.6717ZM28.748 17.1631L31.673 21.0138L23.0215 23.6834L23.2658 18.8549L28.748 17.1631ZM21.5959 19.3712L21.3516 24.1999L15.4435 26.0237L18.3248 20.382L21.5961 19.3712H21.5959ZM39.3937 20.3491L33.6562 36.6446L34.0133 22.0108L39.3938 20.3491H39.3937ZM32.3572 22.5218L32 37.1556L23.3154 25.3149L32.3571 22.5218H32.3572ZM21.6536 25.8258L30.5581 37.9684L16.1715 27.5205L21.6536 25.8259V25.8258Z" fill="#15274B"/>
</svg>
