<svg width="58" height="41" viewBox="0 0 58 41" fill="none" xmlns="http://www.w3.org/2000/svg">
<g clip-path="url(#clip0_930_7)">
<path d="M47.6129 3.2998H10.8894C6.53285 3.2998 3.00116 6.89603 3.00116 11.3322V31.447C3.00116 35.8831 6.53285 39.4794 10.8894 39.4794H47.6129C51.9695 39.4794 55.5012 35.8831 55.5012 31.447V11.3322C55.5012 6.89603 51.9695 3.2998 47.6129 3.2998Z" fill="white" stroke="#D9D9D9"/>
<path fill-rule="evenodd" clip-rule="evenodd" d="M28.9819 29.8114C27.0243 31.5252 24.485 32.5598 21.7102 32.5598C15.5188 32.5598 10.4998 27.4088 10.4998 21.0548C10.4998 14.7008 15.5188 9.5498 21.7102 9.5498C24.485 9.5498 27.0243 10.5844 28.9819 12.2982C30.9395 10.5844 33.4788 9.54986 36.2535 9.54986C42.4449 9.54986 47.464 14.7008 47.464 21.0548C47.464 27.4089 42.4449 32.5598 36.2535 32.5598C33.4788 32.5598 30.9394 31.5252 28.9819 29.8114Z" fill="#ED0006"/>
<path fill-rule="evenodd" clip-rule="evenodd" d="M28.981 29.8114C31.3913 27.7012 32.9198 24.5612 32.9198 21.0548C32.9198 17.5484 31.3913 14.4084 28.981 12.2982C30.9385 10.5844 33.4778 9.5498 36.2526 9.5498C42.444 9.5498 47.463 14.7008 47.463 21.0548C47.463 27.4088 42.444 32.5598 36.2526 32.5598C33.4778 32.5598 30.9385 31.5252 28.981 29.8114Z" fill="#F9A000"/>
<path fill-rule="evenodd" clip-rule="evenodd" d="M28.9795 29.8112C31.3899 27.701 32.9183 24.561 32.9183 21.0546C32.9183 17.5483 31.3899 14.4083 28.9795 12.2981C26.5691 14.4083 25.0407 17.5483 25.0407 21.0546C25.0407 24.561 26.5691 27.701 28.9795 29.8112Z" fill="#FF5E00"/>
<rect x="0.5" y="0.799805" width="57.5" height="40" fill="black" style="mix-blend-mode:saturation"/>
</g>
<defs>
<clipPath id="clip0_930_7">
<rect width="57.5" height="40" fill="white" transform="translate(0.5 0.799805)"/>
</clipPath>
</defs>
</svg>
