<svg width="58" height="41" viewBox="0 0 58 41" fill="none" xmlns="http://www.w3.org/2000/svg">
<path d="M47.1111 3.2998H10.3876C6.03108 3.2998 2.49939 6.8315 2.49939 11.1881V30.9419C2.49939 35.2984 6.03108 38.8301 10.3876 38.8301H47.1111C51.4677 38.8301 54.9994 35.2984 54.9994 30.9419V11.1881C54.9994 6.8315 51.4677 3.2998 47.1111 3.2998Z" fill="white" stroke="#D9D9D9" stroke-miterlimit="16"/>
<path d="M25.6465 16.5283V11H30.0374V12.0571C30.0374 14.5263 28.0714 16.5283 25.6465 16.5283Z" fill="#292929"/>
<path d="M34.4045 18.203L23.018 19.8181L23 16.9461L34.3865 15.3311L34.4045 18.203Z" fill="#292929"/>
<path d="M34.4306 22.3515L23.0441 23.9666L23.0261 21.0946L34.4127 19.4795L34.4306 22.3515Z" fill="#292929"/>
<path d="M33.7937 30.985C33.7937 30.985 31.7581 31.7436 29.8819 31.5239C27.475 31.2413 25.4941 29.5235 25.4941 27.0559V17.5747H29.5591V26.3379C29.5591 27.5861 30.8567 28.0772 32.1388 27.84C32.5836 27.758 33.8687 27.3011 33.8687 27.3011L33.7937 30.985Z" fill="#292929"/>
</svg>
