<svg width="46" height="45" viewBox="0 0 46 45" fill="none" xmlns="http://www.w3.org/2000/svg">
<path d="M39.4672 18.6468C39.1915 18.6933 38.9455 18.8473 38.7833 19.0751C38.6212 19.3029 38.5561 19.5857 38.6024 19.8615C38.7473 20.7335 38.8202 21.616 38.8203 22.4999C38.8233 26.5292 37.2828 30.4065 34.5154 33.3351C32.8583 30.7584 30.3813 28.8152 27.4842 27.8191C28.9288 26.8569 30.0255 25.4554 30.612 23.8217C31.1986 22.1881 31.2439 20.4091 30.7412 18.7477C30.2386 17.0864 29.2147 15.6309 27.8209 14.5964C26.4272 13.5619 24.7375 13.0033 23.0018 13.0033C21.266 13.0033 19.5764 13.5619 18.1826 14.5964C16.7888 15.6309 15.7649 17.0864 15.2623 18.7477C14.7597 20.4091 14.805 22.1881 15.3915 23.8217C15.9781 25.4554 17.0747 26.8569 18.5193 27.8191C15.6222 28.8152 13.1452 30.7584 11.4881 33.3351C9.37047 31.088 7.95713 28.27 7.42249 25.2289C6.88785 22.1879 7.25532 19.0568 8.47954 16.2222C9.70376 13.3875 11.7312 10.9734 14.3115 9.27759C16.8919 7.58183 19.9123 6.67869 23 6.67963C23.8834 6.67981 24.7653 6.75271 25.6367 6.8976C25.7745 6.92357 25.916 6.92181 26.0531 6.89244C26.1902 6.86307 26.32 6.80667 26.435 6.72654C26.55 6.64641 26.6479 6.54416 26.7229 6.42576C26.798 6.30736 26.8487 6.17519 26.872 6.03698C26.8954 5.89877 26.891 5.75728 26.859 5.62079C26.8271 5.48431 26.7682 5.35556 26.686 5.24207C26.6037 5.12859 26.4996 5.03264 26.3798 4.95985C26.26 4.88705 26.1269 4.83887 25.9883 4.81811C22.2437 4.18872 18.396 4.76559 15.0006 6.46544C11.6052 8.16529 8.83786 10.9002 7.09805 14.2752C5.35823 17.6503 4.73598 21.491 5.32113 25.2427C5.90627 28.9945 7.66853 32.4632 10.3535 35.1482C13.0385 37.8332 16.5072 39.5954 20.259 40.1806C24.0107 40.7657 27.8514 40.1435 31.2265 38.4037C34.6015 36.6639 37.3364 33.8965 39.0363 30.5011C40.7361 27.1057 41.313 23.258 40.6836 19.5134C40.6608 19.3766 40.6112 19.2456 40.5377 19.1279C40.4642 19.0102 40.3682 18.9082 40.2552 18.8277C40.1422 18.7472 40.0145 18.6898 39.8792 18.6588C39.744 18.6277 39.604 18.6237 39.4672 18.6468ZM17.0234 21.0937C17.0234 19.9116 17.374 18.7561 18.0307 17.7733C18.6874 16.7905 19.6208 16.0244 20.7129 15.5721C21.805 15.1197 23.0066 15.0014 24.166 15.232C25.3253 15.4626 26.3902 16.0318 27.2261 16.8676C28.0619 17.7035 28.6311 18.7684 28.8617 19.9277C29.0923 21.0871 28.974 22.2888 28.5216 23.3808C28.0693 24.4729 27.3033 25.4063 26.3204 26.063C25.3376 26.7197 24.1821 27.0703 23 27.0703C21.4149 27.0703 19.8948 26.4406 18.7739 25.3198C17.6531 24.1989 17.0234 22.6788 17.0234 21.0937ZM13.0578 34.8046C14.0893 33.0895 15.5469 31.6703 17.2891 30.6851C19.0312 29.6999 20.9986 29.1821 23 29.1821C25.0014 29.1821 26.9688 29.6999 28.711 30.6851C30.4531 31.6703 31.9107 33.0895 32.9422 34.8046C30.1303 37.0848 26.6202 38.3291 23 38.3291C19.3798 38.3291 15.8697 37.0848 13.0578 34.8046ZM42.0266 7.77651L36.4016 13.4015C36.2038 13.599 35.9358 13.71 35.6563 13.71C35.3768 13.71 35.1087 13.599 34.9109 13.4015L32.0984 10.589C31.9121 10.3891 31.8107 10.1246 31.8155 9.8514C31.8204 9.57816 31.9311 9.31746 32.1243 9.12423C32.3175 8.93099 32.5782 8.8203 32.8515 8.81548C33.1247 8.81066 33.3891 8.91208 33.5891 9.09838L35.6563 11.1638L40.5359 6.28588C40.7359 6.09958 41.0003 5.99816 41.2736 6.00298C41.5468 6.0078 41.8075 6.11849 42.0007 6.31173C42.194 6.50496 42.3047 6.76566 42.3095 7.0389C42.3143 7.31213 42.2129 7.57657 42.0266 7.77651Z" fill="#15274B" stroke="#15274B" stroke-width="0.5"/>
</svg>
