<svg width="58" height="40" viewBox="0 0 58 40" fill="none" xmlns="http://www.w3.org/2000/svg">
<g clip-path="url(#clip0_930_3)">
<path d="M47.1116 2.05005H10.3881C6.03151 2.05005 2.49982 5.58122 2.49982 9.93713V29.688C2.49982 34.0439 6.03151 37.5751 10.3881 37.5751H47.1116C51.4681 37.5751 54.9998 34.0439 54.9998 29.688V9.93713C54.9998 5.58122 51.4681 2.05005 47.1116 2.05005Z" fill="white" stroke="#EBE7E4"/>
<path fill-rule="evenodd" clip-rule="evenodd" d="M18.8128 25.8359H15.3294L12.7173 16.0347C12.5933 15.5838 12.33 15.1852 11.9428 14.9974C10.9764 14.5253 9.91154 14.1496 8.74982 13.9601V13.5828H14.3613C15.1357 13.5828 15.7166 14.1496 15.8134 14.8079L17.1687 21.8778L20.6504 13.5828H24.037L18.8128 25.8359ZM25.9731 25.8359H22.6833L25.3923 13.5828H28.6821L25.9731 25.8359ZM32.9382 16.9774C33.035 16.3175 33.6159 15.9401 34.2935 15.9401C35.3584 15.8454 36.5184 16.0348 37.4865 16.5053L38.0674 13.8671C37.0993 13.4898 36.0344 13.3003 35.068 13.3003C31.875 13.3003 29.5517 14.9976 29.5517 17.3531C29.5517 19.1451 31.1974 20.086 32.3591 20.6529C33.6159 21.2181 34.0999 21.5954 34.0031 22.1606C34.0031 23.0084 33.035 23.3858 32.0686 23.3858C30.907 23.3858 29.7452 23.1031 28.6821 22.631L28.1012 25.2708C29.2629 25.7413 30.5197 25.9308 31.6814 25.9308C35.2616 26.0239 37.4865 24.3283 37.4865 21.7832C37.4865 18.5783 32.9382 18.3904 32.9382 16.9774ZM48.9998 25.8359L46.3877 13.5828H43.582C43.0011 13.5828 42.4203 13.9601 42.2267 14.5253L37.3897 25.8359H40.7762L41.4522 24.0455H45.6132L46.0005 25.8359H48.9998ZM44.066 16.8827L45.0324 21.5008H42.3234L44.066 16.8827Z" fill="#172B85"/>
<rect y="0.800049" width="57.5" height="38.7791" fill="black" style="mix-blend-mode:saturation"/>
</g>
<defs>
<clipPath id="clip0_930_3">
<rect width="57.5" height="38.7791" fill="white" transform="translate(0 0.800049)"/>
</clipPath>
</defs>
</svg>
